<svg width="53" height="47" viewBox="0 0 53 47" fill="none" xmlns="http://www.w3.org/2000/svg">
<path fill-rule="evenodd" clip-rule="evenodd" d="M52.57 26.0787L26.5942 0L0.450734 26.0758C0.309992 26.2114 0.197656 26.3738 0.120282 26.5533C0.0429075 26.7329 0.00204348 26.9261 7.46999e-05 27.1216C-0.00189408 27.3172 0.0350719 27.5111 0.108815 27.6922C0.182558 27.8733 0.291602 28.0379 0.429584 28.1763C0.567567 28.3148 0.731725 28.4244 0.91248 28.4987C1.09324 28.573 1.28697 28.6105 1.48238 28.6091C1.67779 28.6077 1.87095 28.5674 2.05062 28.4904C2.23028 28.4135 2.39283 28.3016 2.52879 28.1611L5.9049 24.7945V45.5273C5.9049 45.9179 6.05996 46.2925 6.33596 46.5687C6.61196 46.8448 6.98629 47 7.37661 47H20.622C21.0123 47 21.3867 46.8448 21.6627 46.5687C21.9387 46.2925 22.0937 45.9179 22.0937 45.5273V32.6558C22.0937 32.2652 22.2488 31.8906 22.5248 31.6145C22.8008 31.3383 23.1751 31.1831 23.5655 31.1831H29.4523C29.8426 31.1831 30.217 31.3383 30.493 31.6145C30.769 31.8906 30.924 32.2652 30.924 32.6558V45.5273C30.924 45.9179 31.0791 46.2925 31.3551 46.5687C31.6311 46.8448 32.0054 47 32.3957 47H45.6411C46.0315 47 46.4058 46.8448 46.6818 46.5687C46.9578 46.2925 47.1129 45.9179 47.1129 45.5273V24.7724L50.486 28.1596C50.6226 28.2966 50.7847 28.4052 50.9632 28.4795C51.1417 28.5537 51.3331 28.592 51.5264 28.5922C51.7197 28.5924 51.9112 28.5545 52.0899 28.4807C52.2685 28.4068 52.4309 28.2985 52.5678 28.1619C52.7046 28.0252 52.8132 27.863 52.8874 27.6843C52.9615 27.5057 52.9998 27.3142 53 27.1207C53.0002 26.9273 52.9623 26.7357 52.8885 26.5569C52.8148 26.3781 52.7065 26.2156 52.57 26.0787ZM44.1694 21.8167L26.5869 4.16482L8.84833 21.8579V44.0546H19.1503V32.6558C19.1503 31.4841 19.6155 30.3603 20.4435 29.5317C21.2715 28.7032 22.3945 28.2377 23.5655 28.2377H29.4523C30.6233 28.2377 31.7463 28.7032 32.5743 29.5317C33.4023 30.3603 33.8674 31.4841 33.8674 32.6558V44.0546H44.1694V21.8167Z" fill="#800000"/>
</svg>
