<svg width="49" height="48" viewBox="0 0 49 48" fill="none" xmlns="http://www.w3.org/2000/svg">
<path d="M22.0873 36.8123C19.1662 36.8123 16.3107 35.9461 13.8818 34.3232C11.453 32.7003 9.55999 30.3936 8.44213 27.6949C7.32427 24.9961 7.03179 22.0265 7.60167 19.1615C8.17155 16.2965 9.5782 13.6648 11.6437 11.5993C13.7093 9.53377 16.3409 8.12712 19.2059 7.55723C22.0709 6.98735 25.0405 7.27984 27.7393 8.3977C30.4381 9.51556 32.7447 11.4086 34.3676 13.8374C35.9905 16.2662 36.8567 19.1217 36.8567 22.0429C36.8567 23.9824 36.4747 25.903 35.7324 27.6949C34.9902 29.4868 33.9023 31.1149 32.5308 32.4864C31.1594 33.8579 29.5312 34.9458 27.7393 35.688C25.9474 36.4302 24.0268 36.8123 22.0873 36.8123ZM22.0873 10.2352C19.7597 10.2352 17.4844 10.9254 15.5491 12.2185C13.6138 13.5116 12.1054 15.3496 11.2147 17.5C10.3239 19.6504 10.0909 22.0167 10.545 24.2995C10.999 26.5824 12.1199 28.6793 13.7657 30.3252C15.4116 31.971 17.5085 33.0919 19.7914 33.546C22.0742 34 24.4405 33.767 26.5909 32.8763C28.7413 31.9855 30.5793 30.4771 31.8724 28.5418C33.1655 26.6065 33.8557 24.3312 33.8557 22.0036C33.8557 18.8824 32.6159 15.8891 30.4088 13.6821C28.2018 11.4751 25.2085 10.2352 22.0873 10.2352Z" fill="#800000"/>
<path d="M40.1912 41.6179C39.998 41.6188 39.8064 41.5811 39.6279 41.507C39.4494 41.4329 39.2875 41.3239 39.1517 41.1863L31.0511 33.0857C30.7912 32.8069 30.6498 32.438 30.6565 32.0569C30.6632 31.6758 30.8176 31.3122 31.0871 31.0427C31.3566 30.7732 31.7203 30.6188 32.1014 30.612C32.4825 30.6053 32.8513 30.7468 33.1302 31.0066L41.2308 39.1073C41.5063 39.3831 41.661 39.757 41.661 40.1468C41.661 40.5366 41.5063 40.9105 41.2308 41.1863C41.095 41.3239 40.933 41.4329 40.7545 41.507C40.576 41.5811 40.3845 41.6188 40.1912 41.6179Z" fill="#800000"/>
</svg>
