<svg width="46" height="44" viewBox="0 0 46 44" fill="none" xmlns="http://www.w3.org/2000/svg">
<path d="M2 36.6662C2 33.8372 3.12381 31.1241 5.12419 29.1237C7.12458 27.1233 9.83769 25.9995 12.6667 25.9995H34C36.829 25.9995 39.5421 27.1233 41.5425 29.1237C43.5429 31.1241 44.6667 33.8372 44.6667 36.6662C44.6667 38.0807 44.1048 39.4372 43.1046 40.4374C42.1044 41.4376 40.7478 41.9995 39.3333 41.9995H7.33333C5.91885 41.9995 4.56229 41.4376 3.5621 40.4374C2.5619 39.4372 2 38.0807 2 36.6662Z" stroke="#800000" stroke-width="2.5" stroke-linejoin="round"/>
<path d="M23.3677 17.9653C27.786 17.9653 31.3677 14.3836 31.3677 9.96533C31.3677 5.54705 27.786 1.96533 23.3677 1.96533C18.9494 1.96533 15.3677 5.54705 15.3677 9.96533C15.3677 14.3836 18.9494 17.9653 23.3677 17.9653Z" stroke="#800000" stroke-width="2.5"/>
</svg>
