<svg width="36" height="36" viewBox="0 0 36 36" fill="none" xmlns="http://www.w3.org/2000/svg">
<path d="M9.00002 18.0752C9.00002 18.4752 9.02502 18.8692 9.07502 19.2572C9.12502 19.6452 9.21252 20.0262 9.33752 20.4002C9.46252 20.8252 9.45002 21.2317 9.30002 21.6197C9.15002 22.0077 8.88752 22.2887 8.51252 22.4627C8.11252 22.6627 7.71902 22.6817 7.33202 22.5197C6.94502 22.3577 6.68852 22.0637 6.56252 21.6377C6.36252 21.0627 6.21852 20.4752 6.13052 19.8752C6.04252 19.2752 5.99902 18.6752 6.00002 18.0752C6.00002 14.7252 7.16252 11.8752 9.48752 9.5252C11.8125 7.1752 14.65 6.0002 18 6.0002H18.2625L16.9125 4.6502C16.6375 4.3752 16.5 4.0252 16.5 3.6002C16.5 3.1752 16.6375 2.8252 16.9125 2.5502C17.1875 2.2752 17.5375 2.1377 17.9625 2.1377C18.3875 2.1377 18.7375 2.2752 19.0125 2.5502L22.9125 6.4502C23.2125 6.7502 23.3625 7.1002 23.3625 7.5002C23.3625 7.9002 23.2125 8.25019 22.9125 8.55019L19.0125 12.4502C18.7375 12.7252 18.3875 12.8627 17.9625 12.8627C17.5375 12.8627 17.1875 12.7252 16.9125 12.4502C16.6375 12.1752 16.5 11.8252 16.5 11.4002C16.5 10.9752 16.6375 10.6252 16.9125 10.3502L18.2625 9.0002H18C15.5 9.0002 13.375 9.8817 11.625 11.6447C9.87502 13.4077 9.00002 15.5512 9.00002 18.0752ZM27 17.9252C27 17.5252 26.975 17.1317 26.925 16.7447C26.875 16.3577 26.7875 15.9762 26.6625 15.6002C26.5375 15.1752 26.55 14.7692 26.7 14.3822C26.85 13.9952 27.1125 13.7137 27.4875 13.5377C27.8875 13.3377 28.281 13.3192 28.668 13.4822C29.055 13.6452 29.3115 13.9387 29.4375 14.3627C29.6375 14.9377 29.7815 15.5252 29.8695 16.1252C29.9575 16.7252 30.001 17.3252 30 17.9252C30 21.2752 28.8375 24.1252 26.5125 26.4752C24.1875 28.8252 21.35 30.0002 18 30.0002H17.7375L19.0875 31.3502C19.3625 31.6252 19.5 31.9752 19.5 32.4002C19.5 32.8252 19.3625 33.1752 19.0875 33.4502C18.8125 33.7252 18.4625 33.8627 18.0375 33.8627C17.6125 33.8627 17.2625 33.7252 16.9875 33.4502L13.0875 29.5502C12.7875 29.2502 12.6375 28.9002 12.6375 28.5002C12.6375 28.1002 12.7875 27.7502 13.0875 27.4502L16.9875 23.5502C17.2625 23.2752 17.6125 23.1377 18.0375 23.1377C18.4625 23.1377 18.8125 23.2752 19.0875 23.5502C19.3625 23.8252 19.5 24.1752 19.5 24.6002C19.5 25.0252 19.3625 25.3752 19.0875 25.6502L17.7375 27.0002H18C20.5 27.0002 22.625 26.1192 24.375 24.3572C26.125 22.5952 27 20.4512 27 17.9252Z" fill="#800000"/>
</svg>
