<svg width="48" height="48" viewBox="0 0 48 48" fill="none" xmlns="http://www.w3.org/2000/svg">
<path d="M0 21.3333H5.33333V26.6667H0V21.3333ZM21.3333 5.33333H26.6667V16H21.3333V5.33333ZM16 21.3333H26.6667V32H21.3333V26.6667H16V21.3333ZM32 21.3333H37.3333V26.6667H42.6667V21.3333H48V26.6667H42.6667V32H48V42.6667H42.6667V48H37.3333V42.6667H26.6667V48H21.3333V37.3333H32V32H37.3333V26.6667H32V21.3333ZM42.6667 42.6667V32H37.3333V42.6667H42.6667ZM32 0H48V16H32V0ZM37.3333 5.33333V10.6667H42.6667V5.33333H37.3333ZM0 0H16V16H0V0ZM5.33333 5.33333V10.6667H10.6667V5.33333H5.33333ZM0 32H16V48H0V32ZM5.33333 37.3333V42.6667H10.6667V37.3333H5.33333Z" fill="#800000"/>
</svg>
