<svg width="25" height="26" viewBox="0 0 25 26" fill="none" xmlns="http://www.w3.org/2000/svg">
<path d="M6.26667 6.84723V19.8826C6.26653 20.2549 6.33975 20.6235 6.48214 20.9675C6.62453 21.3114 6.83331 21.6239 7.09653 21.8872C7.35975 22.1504 7.67227 22.3592 8.01621 22.5015C8.36016 22.6439 8.72879 22.7172 9.10104 22.717H17.0365C17.7879 22.717 18.5086 22.4185 19.0399 21.8872C19.5713 21.3558 19.8698 20.6351 19.8698 19.8837V6.84619M4 6.84723H22.1375" stroke="#A7000B" stroke-width="1.5" stroke-linecap="round" stroke-linejoin="round"/>
<path d="M9.66748 6.40104V4.7C9.66721 4.47659 9.71103 4.25532 9.79643 4.04888C9.88183 3.84243 10.0071 3.65487 10.1652 3.49694C10.3232 3.33901 10.5108 3.21382 10.7173 3.12855C10.9238 3.04328 11.1451 2.99959 11.3685 3H14.7685C14.9919 2.99959 15.2132 3.04328 15.4197 3.12855C15.6262 3.21382 15.8139 3.33901 15.9719 3.49694C16.1299 3.65487 16.2552 3.84243 16.3406 4.04888C16.426 4.25532 16.4698 4.47659 16.4696 4.7V6.40104M10.8019 17.8354V12.1698M15.3362 17.8354V12.1698" stroke="#A7000B" stroke-width="1.5" stroke-linecap="round" stroke-linejoin="round"/>
</svg>
