<svg width="48" height="48" viewBox="0 0 48 48" fill="none" xmlns="http://www.w3.org/2000/svg">
<path d="M9.375 31.5H2M2 46.25H31.5C33.7912 46.25 34.9367 46.25 35.839 45.8763C36.4359 45.6292 36.9783 45.2669 37.4351 44.8101C37.8919 44.3533 38.2542 43.8109 38.5013 43.214C38.875 42.3117 38.875 41.1662 38.875 38.875C38.875 36.5838 38.875 35.4383 38.5013 34.536C38.2542 33.9391 37.8919 33.3967 37.4351 32.9399C36.9783 32.4831 36.4359 32.1208 35.839 31.8737C34.9367 31.5 33.7912 31.5 31.5 31.5H26.5833H38.875C41.1662 31.5 42.3117 31.5 43.214 31.1263C43.8109 30.8792 44.3533 30.5169 44.8101 30.0601C45.2669 29.6033 45.6292 29.0609 45.8763 28.464C46.25 27.5617 46.25 26.4162 46.25 24.125C46.25 21.8338 46.25 20.6882 45.8763 19.786C45.6292 19.1891 45.2669 18.6467 44.8101 18.1899C44.3533 17.7331 43.8109 17.3708 43.214 17.1237C42.3117 16.75 41.1662 16.75 38.875 16.75H2H29.0417C31.3328 16.75 32.4784 16.75 33.3806 16.3763C33.9776 16.1292 34.5199 15.7669 34.9768 15.3101C35.4336 14.8533 35.7959 14.3109 36.043 13.714C36.4167 12.8117 36.4167 11.6662 36.4167 9.375C36.4167 7.08383 36.4167 5.93825 36.043 5.03604C35.7959 4.43911 35.4336 3.89673 34.9768 3.4399C34.5199 2.98308 33.9776 2.62076 33.3806 2.37367C32.4784 2 31.3328 2 29.0417 2H2" stroke="#800000" stroke-width="2.5" stroke-linecap="round" stroke-linejoin="round"/>
<path d="M26.5833 16.75V31.9671C26.5833 34.7081 26.5833 36.0774 25.7818 36.3675C24.978 36.6625 24.0708 35.6202 22.259 33.5404L21.0741 32.1834C20.2063 31.1878 19.7737 30.6912 19.2083 30.6912C18.6428 30.6912 18.2102 31.1878 17.3399 32.1834L16.1599 33.5404C14.3457 35.6202 13.4385 36.6625 12.6371 36.3675C11.8333 36.0774 11.8333 34.7081 11.8333 31.9671V16.75" stroke="#800000" stroke-width="2.5" stroke-linecap="round" stroke-linejoin="round"/>
</svg>
