<svg width="35" height="30" viewBox="0 0 35 30" fill="none" xmlns="http://www.w3.org/2000/svg">
<path fill-rule="evenodd" clip-rule="evenodd" d="M4.90116 2.08211C3.27216 4.25975 2.77116 8.42958 4.13716 8.42958C4.57316 8.42958 5.36116 7.06024 5.88716 5.38556L6.84416 2.34155L17.3442 2.06806C33.4022 1.65126 32.3442 0.812985 32.3442 13.9528C32.3442 22.3037 31.9982 25.3281 30.9512 26.142C30.0292 26.8594 25.7182 27.1357 18.2012 26.9597L6.84416 26.6937L5.88716 23.6496C5.36116 21.975 4.57316 20.6056 4.13716 20.6056C2.77116 20.6056 3.27216 24.7755 4.90116 26.9531C6.36716 28.9144 7.17816 29.0352 18.8292 29.0352C28.7432 29.0352 31.5132 28.743 32.7732 27.5638C35.0702 25.4114 35.0702 3.62378 32.7732 1.47143C31.5132 0.292225 28.7432 0 18.8292 0C7.17816 0 6.36716 0.120824 4.90116 2.08211ZM18.3442 7.32999C18.3442 7.75521 19.5082 9.12455 20.9302 10.374L23.5162 12.6444L11.6802 13.1127C-3.92684 13.7299 -3.88284 15.3709 11.7492 15.7193L23.6552 15.9844L20.8222 18.7539C19.2642 20.2769 18.3032 21.8157 18.6852 22.1745C19.5062 22.9425 27.3442 16.0125 27.3442 14.5176C27.3442 13.4058 20.2102 6.55634 19.0522 6.55634C18.6632 6.55634 18.3442 6.90476 18.3442 7.32999Z" fill="#800000"/>
</svg>
