<svg width="25" height="25" viewBox="0 0 25 25" fill="none" xmlns="http://www.w3.org/2000/svg">
<path d="M9.75729 2.34375H11.9792C12.1864 2.34375 12.3851 2.42606 12.5316 2.57257C12.6781 2.71909 12.7604 2.9178 12.7604 3.125C12.7604 3.3322 12.6781 3.53091 12.5316 3.67743C12.3851 3.82394 12.1864 3.90625 11.9792 3.90625H9.79167C8.6125 3.90625 7.77396 3.90625 7.11875 3.96042C6.47292 4.0125 6.07188 4.11354 5.75417 4.275C5.11732 4.59954 4.59954 5.11732 4.275 5.75417C4.11354 6.07188 4.01354 6.47292 3.96042 7.11875C3.90729 7.775 3.90625 8.6125 3.90625 9.79167V15.2083C3.90625 16.3885 3.90625 17.226 3.96042 17.8812C4.0125 18.5271 4.11354 18.9281 4.275 19.2458C4.59954 19.8827 5.11732 20.4005 5.75417 20.725C6.07188 20.8865 6.47292 20.9865 7.11875 21.0396C7.775 21.0927 8.6125 21.0937 9.79167 21.0937H15.2083C16.3885 21.0937 17.226 21.0937 17.8812 21.0396C18.5271 20.9875 18.9281 20.8865 19.2458 20.725C19.8827 20.4005 20.4005 19.8827 20.725 19.2458C20.8865 18.9281 20.9865 18.5271 21.0396 17.8812C21.0927 17.225 21.0937 16.3875 21.0937 15.2083V13.0208C21.0937 12.8136 21.1761 12.6149 21.3226 12.4684C21.4691 12.3219 21.6678 12.2396 21.875 12.2396C22.0822 12.2396 22.2809 12.3219 22.4274 12.4684C22.5739 12.6149 22.6562 12.8136 22.6562 13.0208V15.2427C22.6562 16.3802 22.6563 17.2823 22.5969 18.0083C22.5365 18.7521 22.4094 19.3802 22.1177 19.9552C21.6431 20.8859 20.8862 21.6425 19.9552 22.1167C19.3802 22.4094 18.7521 22.5365 18.0083 22.5969C17.2823 22.6563 16.3802 22.6562 15.2427 22.6562H9.75729C8.61979 22.6562 7.71771 22.6563 6.99167 22.5969C6.24792 22.5365 5.61979 22.4094 5.04583 22.1177C4.11473 21.6433 3.35772 20.8863 2.88333 19.9552C2.59062 19.3802 2.46354 18.7521 2.40312 18.0083C2.34375 17.2823 2.34375 16.3802 2.34375 15.2427V9.75729C2.34375 8.61979 2.34375 7.71771 2.40312 6.99167C2.46354 6.24792 2.59062 5.61979 2.88229 5.04583C3.35695 4.11457 4.11434 3.35755 5.04583 2.88333C5.61875 2.59062 6.24792 2.46354 6.99167 2.40312C7.71771 2.34375 8.61979 2.34375 9.75729 2.34375ZM15.3646 5.98958C15.3646 5.51081 15.4589 5.03672 15.6421 4.59438C15.8253 4.15205 16.0939 3.75014 16.4324 3.41159C16.771 3.07304 17.1729 2.80449 17.6152 2.62127C18.0575 2.43805 18.5316 2.34375 19.0104 2.34375C19.4892 2.34375 19.9633 2.43805 20.4056 2.62127C20.8479 2.80449 21.2499 3.07304 21.5884 3.41159C21.927 3.75014 22.1955 4.15205 22.3787 4.59438C22.5619 5.03672 22.6562 5.51081 22.6562 5.98958C22.6562 6.95652 22.2721 7.88385 21.5884 8.56758C20.9047 9.2513 19.9774 9.63542 19.0104 9.63542C18.0435 9.63542 17.1161 9.2513 16.4324 8.56758C15.7487 7.88385 15.3646 6.95652 15.3646 5.98958Z" fill="white"/>
</svg>
