<svg width="26" height="26" viewBox="0 0 26 26" fill="none" xmlns="http://www.w3.org/2000/svg">
<path fill-rule="evenodd" clip-rule="evenodd" d="M13.4924 12.3177L17.6589 16.4842L16.7509 17.3934L12.2074 12.8499V6.4249H13.4924V12.3177ZM12.8499 23.5581C6.93569 23.5581 2.1416 18.764 2.1416 12.8499C2.1416 6.93569 6.93569 2.1416 12.8499 2.1416C18.764 2.1416 23.5581 6.93569 23.5581 12.8499C23.5581 18.764 18.764 23.5581 12.8499 23.5581ZM12.8499 22.2731C15.3491 22.2731 17.7459 21.2803 19.5131 19.5131C21.2803 17.7459 22.2731 15.3491 22.2731 12.8499C22.2731 10.3506 21.2803 7.95381 19.5131 6.1866C17.7459 4.4194 15.3491 3.42659 12.8499 3.42659C10.3506 3.42659 7.95381 4.4194 6.1866 6.1866C4.4194 7.95381 3.42659 10.3506 3.42659 12.8499C3.42659 15.3491 4.4194 17.7459 6.1866 19.5131C7.95381 21.2803 10.3506 22.2731 12.8499 22.2731Z" fill="#800000"/>
</svg>
