<svg width="108" height="108" viewBox="0 0 108 108" fill="none" xmlns="http://www.w3.org/2000/svg">
<g filter="url(#filter0_d_66_22)">
<circle cx="54" cy="50" r="39" fill="#FBFBFB"/>
</g>
<path d="M30 45.3333H35.3333V50.6667H30V45.3333ZM51.3333 29.3333H56.6667V40H51.3333V29.3333ZM46 45.3333H56.6667V56H51.3333V50.6667H46V45.3333ZM62 45.3333H67.3333V50.6667H72.6667V45.3333H78V50.6667H72.6667V56H78V66.6667H72.6667V72H67.3333V66.6667H56.6667V72H51.3333V61.3333H62V56H67.3333V50.6667H62V45.3333ZM72.6667 66.6667V56H67.3333V66.6667H72.6667ZM62 24H78V40H62V24ZM67.3333 29.3333V34.6667H72.6667V29.3333H67.3333ZM30 24H46V40H30V24ZM35.3333 29.3333V34.6667H40.6667V29.3333H35.3333ZM30 56H46V72H30V56ZM35.3333 61.3333V66.6667H40.6667V61.3333H35.3333Z" fill="#800000"/>
<defs>
<filter id="filter0_d_66_22" x="0" y="0" width="108" height="108" filterUnits="userSpaceOnUse" color-interpolation-filters="sRGB">
<feFlood flood-opacity="0" result="BackgroundImageFix"/>
<feColorMatrix in="SourceAlpha" type="matrix" values="0 0 0 0 0 0 0 0 0 0 0 0 0 0 0 0 0 0 127 0" result="hardAlpha"/>
<feOffset dy="4"/>
<feGaussianBlur stdDeviation="7.5"/>
<feComposite in2="hardAlpha" operator="out"/>
<feColorMatrix type="matrix" values="0 0 0 0 0.326923 0 0 0 0 0.139885 0 0 0 0 0.139885 0 0 0 0.12 0"/>
<feBlend mode="normal" in2="BackgroundImageFix" result="effect1_dropShadow_66_22"/>
<feBlend mode="normal" in="SourceGraphic" in2="effect1_dropShadow_66_22" result="shape"/>
</filter>
</defs>
</svg>
