<svg width="29" height="29" viewBox="0 0 29 29" fill="none" xmlns="http://www.w3.org/2000/svg">
<path d="M28.6496 6.3921L22.6079 0.350437C22.495 0.238447 22.3611 0.149845 22.2139 0.0897132C22.0667 0.029581 21.909 -0.000899216 21.75 2.01964e-05H2.41667C1.77573 2.01964e-05 1.16104 0.254632 0.707825 0.707845C0.254612 1.16106 0 1.77575 0 2.41669V26.5833C0 27.2243 0.254612 27.839 0.707825 28.2922C1.16104 28.7454 1.77573 29 2.41667 29H26.5833C27.2243 29 27.8389 28.7454 28.2922 28.2922C28.7454 27.839 29 27.2243 29 26.5833V7.25002C29.0009 7.09099 28.9704 6.93335 28.9103 6.78613C28.8502 6.63891 28.7616 6.50501 28.6496 6.3921ZM9.66666 2.41669H19.3333V7.25002H9.66666V2.41669ZM19.3333 26.5833H9.66666V16.9167H19.3333V26.5833ZM21.75 26.5833V16.9167C21.75 16.2757 21.4954 15.661 21.0422 15.2078C20.5889 14.7546 19.9743 14.5 19.3333 14.5H9.66666C9.02572 14.5 8.41103 14.7546 7.95782 15.2078C7.50461 15.661 7.25 16.2757 7.25 16.9167V26.5833H2.41667V2.41669H7.25V7.25002C7.25 7.89096 7.50461 8.50564 7.95782 8.95886C8.41103 9.41207 9.02572 9.66668 9.66666 9.66668H19.3333C19.9743 9.66668 20.5889 9.41207 21.0422 8.95886C21.4954 8.50564 21.75 7.89096 21.75 7.25002V2.9121L26.5833 7.74543V26.5833H21.75Z" fill="#800000"/>
</svg>
