<svg width="37" height="37" viewBox="0 0 37 37" fill="none" xmlns="http://www.w3.org/2000/svg">
<path d="M12.3332 4.625H9.24984C8.43209 4.625 7.64783 4.94985 7.06959 5.52809C6.49135 6.10632 6.1665 6.89058 6.1665 7.70833V29.2917C6.1665 30.1094 6.49135 30.8937 7.06959 31.4719C7.64783 32.0501 8.43209 32.375 9.24984 32.375H18.4998M12.3332 4.625V18.5L16.9582 13.875L21.5832 18.5V4.625M12.3332 4.625H21.5832M21.5832 4.625H27.7498C28.5676 4.625 29.3518 4.94985 29.9301 5.52809C30.5083 6.10632 30.8332 6.89058 30.8332 7.70833V18.5M29.2915 24.6667V29.2917M29.2915 29.2917V33.9167M29.2915 29.2917H33.9165M29.2915 29.2917H24.6665" stroke="#800000" stroke-width="2" stroke-linecap="round" stroke-linejoin="round"/>
</svg>
