<svg width="51" height="47" viewBox="0 0 51 47" fill="none" xmlns="http://www.w3.org/2000/svg">
<path d="M1.75 30.625H32.625C34.8385 30.625 35.9453 30.625 36.8169 30.986C37.3936 31.2247 37.9176 31.5748 38.3589 32.0161C38.8003 32.4574 39.1503 32.9814 39.389 33.5581C39.75 34.4298 39.75 35.5365 39.75 37.75C39.75 39.9635 39.75 41.0702 39.389 41.9419C39.1503 42.5186 38.8003 43.0426 38.3589 43.4839C37.9176 43.9252 37.3936 44.2753 36.8169 44.514C35.9453 44.875 34.8385 44.875 32.625 44.875H1.75M1.75 2.125H32.625C34.8385 2.125 35.9453 2.125 36.8169 2.486C37.3936 2.72472 37.9176 3.07475 38.3589 3.51609C38.8003 3.95743 39.1503 4.48143 39.389 5.05813C39.75 5.92975 39.75 7.0365 39.75 9.25C39.75 11.4635 39.75 12.5702 39.389 13.4419C39.1503 14.0186 38.8003 14.5426 38.3589 14.9839C37.9176 15.4252 37.3936 15.7753 36.8169 16.014C35.9453 16.375 34.8385 16.375 32.625 16.375H1.75M49.25 16.375H18.375C16.1615 16.375 15.0548 16.375 14.1831 16.736C13.6064 16.9747 13.0824 17.3248 12.6411 17.7661C12.1998 18.2074 11.8497 18.7314 11.611 19.3081C11.25 20.1797 11.25 21.2865 11.25 23.5C11.25 25.7135 11.25 26.8203 11.611 27.6919C11.8497 28.2686 12.1998 28.7926 12.6411 29.2339C13.0824 29.6752 13.6064 30.0253 14.1831 30.264C15.0548 30.625 16.1615 30.625 18.375 30.625H49.25" stroke="#800000" stroke-width="2.5" stroke-linecap="round" stroke-linejoin="round"/>
<path d="M46.875 30.625C44.2506 30.625 42.125 27.4354 42.125 23.5C42.125 19.5646 44.2506 16.375 46.875 16.375M4.125 2.125C6.74938 2.125 8.875 5.31463 8.875 9.25C8.875 13.1854 6.74938 16.375 4.125 16.375M4.125 30.625C6.74938 30.625 8.875 33.8146 8.875 37.75C8.875 41.6854 6.74938 44.875 4.125 44.875" stroke="#800000" stroke-width="2.5" stroke-linecap="round" stroke-linejoin="round"/>
</svg>
