<svg width="26" height="26" viewBox="0 0 26 26" fill="none" xmlns="http://www.w3.org/2000/svg">
<path d="M12.8497 5.88936L12.2715 6.44619C12.3464 6.52392 12.4362 6.58574 12.5356 6.62797C12.6349 6.6702 12.7418 6.69197 12.8497 6.69197C12.9577 6.69197 13.0646 6.6702 13.1639 6.62797C13.2633 6.58574 13.3531 6.52392 13.428 6.44619L12.8497 5.88936ZM7.49669 17.5828C7.33197 17.4473 7.12019 17.3828 6.90792 17.4035C6.69566 17.4242 6.5003 17.5283 6.36483 17.6931C6.22936 17.8578 6.16488 18.0696 6.18556 18.2818C6.20625 18.4941 6.31041 18.6895 6.47513 18.8249L7.49669 17.5828ZM2.50772 14.3607C2.55834 14.4532 2.6267 14.5348 2.70888 14.601C2.79106 14.6671 2.88546 14.7163 2.98668 14.746C3.08791 14.7756 3.19398 14.785 3.29884 14.7737C3.4037 14.7623 3.50529 14.7304 3.59782 14.6798C3.69035 14.6291 3.772 14.5608 3.83812 14.4786C3.90423 14.3964 3.95351 14.302 3.98314 14.2008C4.01277 14.0996 4.02218 13.9935 4.01081 13.8886C3.99945 13.7838 3.96755 13.6822 3.91693 13.5897L2.50772 14.3607ZM2.94462 9.78395C2.94462 7.48168 4.24567 5.54991 6.02217 4.73715C7.74834 3.94796 10.0677 4.15677 12.2715 6.44619L13.428 5.3336C10.8152 2.61692 7.77832 2.16824 5.35397 3.27655C2.98317 4.36129 1.33838 6.87987 1.33838 9.78395H2.94462ZM9.09865 20.8809C9.64798 21.3135 10.2369 21.774 10.8334 22.1231C11.4298 22.4722 12.1109 22.7549 12.8497 22.7549V21.1486C12.5178 21.1486 12.128 21.0201 11.644 20.7364C11.1589 20.4537 10.6567 20.0639 10.0934 19.6195L9.09865 20.8809ZM16.6009 20.8809C18.1278 19.6762 20.081 18.297 21.6123 16.5719C23.1725 14.8158 24.3611 12.6388 24.3611 9.78395H22.7549C22.7549 12.1376 21.7911 13.9505 20.4119 15.5054C19.0038 17.0902 17.2294 18.3398 15.6061 19.6195L16.6009 20.8809ZM24.3611 9.78395C24.3611 6.87987 22.7174 4.36129 20.3455 3.27655C17.9212 2.16824 14.8865 2.61692 12.2715 5.33253L13.428 6.44619C15.6318 4.15784 17.9512 3.94796 19.6773 4.73715C21.4538 5.54991 22.7549 7.48061 22.7549 9.78395H24.3611ZM15.6061 19.6195C15.0428 20.0639 14.5406 20.4537 14.0555 20.7364C13.5704 21.0191 13.1817 21.1486 12.8497 21.1486V22.7549C13.5886 22.7549 14.2697 22.4711 14.8661 22.1231C15.4636 21.774 16.0515 21.3135 16.6009 20.8809L15.6061 19.6195ZM10.0934 19.6195C9.24107 18.9481 8.37477 18.3056 7.49669 17.5828L6.47513 18.8249C7.36391 19.5563 8.3041 20.2545 9.09865 20.8809L10.0934 19.6195ZM3.91693 13.5907C3.27178 12.4262 2.93695 11.1153 2.94462 9.78395H1.33838C1.33838 11.538 1.78813 13.0446 2.50772 14.3607L3.91693 13.5907Z" fill="#800000"/>
</svg>
