<svg width="224" height="224" viewBox="0 0 224 224" fill="none" xmlns="http://www.w3.org/2000/svg">
<path fill-rule="evenodd" clip-rule="evenodd" d="M82.3544 3.74662C62.3927 9.12403 46.6729 18.8927 30.7341 35.8248C-11.8686 81.0848 -9.9638 149.265 35.0992 192.084C62.0205 217.662 94.9489 228.126 129.738 222.16C153.655 218.059 170.494 209.485 188.811 192.084C224.035 158.617 233.775 106.517 212.918 63.1638C205.19 47.1 183.619 23.8071 167.968 14.6247C143.564 0.311444 110.641 -3.87159 82.3544 3.74662ZM145.811 14.8493C163.734 21.1061 184.626 37.0054 195.152 52.398C218.077 85.9171 220.888 121.754 203.411 157.637C196.739 171.336 174.53 196.703 169.21 196.703C167.823 196.703 166.69 189.079 166.69 179.757C166.69 166.132 165.524 161.573 160.74 156.473C155.015 150.375 153.173 150.134 112.338 150.134C72.5213 150.134 69.4945 150.503 63.5531 156.089C58.2274 161.099 57.2203 164.803 57.2203 179.374C57.2203 188.904 56.1009 196.703 54.7353 196.703C53.3669 196.703 46.8097 191.411 40.1622 184.943C17.1983 162.603 5.04991 126.085 10.5808 96.0308C22.4008 31.8307 85.6686 -6.15349 145.811 14.8493ZM90.9997 62.6269C85.9669 65.8566 80.4551 72.9297 77.8005 79.5754C63.2931 115.867 106.41 146.364 136.454 121.061C154.229 106.09 152.27 74.1049 132.85 62.2516C121.408 55.2661 102.209 55.4387 90.9997 62.6269ZM123.767 68.2727C149.941 81.671 141.189 120 111.955 120C84.0129 120 73.4354 82.638 97.6555 69.4835C106.676 64.5828 115.737 64.1636 123.767 68.2727ZM154.18 162.655C157.251 165.732 158.479 172.32 158.479 185.721V204.48L144.112 209.318C125.745 215.503 98.1645 215.503 79.7983 209.318L65.4305 204.48V186.425C65.4305 158.96 66.443 158.352 112.185 158.352C142.803 158.352 150.685 159.16 154.18 162.655Z" fill="#A7000B"/>
</svg>
