<svg width="26" height="26" viewBox="0 0 26 26" fill="none" xmlns="http://www.w3.org/2000/svg">
<path d="M12.8497 5.88948L12.2715 6.44631C12.3464 6.52404 12.4362 6.58587 12.5356 6.62809C12.6349 6.67032 12.7418 6.69209 12.8497 6.69209C12.9577 6.69209 13.0646 6.67032 13.1639 6.62809C13.2633 6.58587 13.3531 6.52404 13.428 6.44631L12.8497 5.88948ZM7.49669 17.5829C7.33197 17.4474 7.12019 17.3829 6.90792 17.4036C6.69566 17.4243 6.5003 17.5285 6.36483 17.6932C6.22936 17.8579 6.16488 18.0697 6.18556 18.282C6.20625 18.4942 6.31041 18.6896 6.47513 18.8251L7.49669 17.5829ZM2.50772 14.3608C2.55834 14.4533 2.6267 14.535 2.70888 14.6011C2.79106 14.6672 2.88546 14.7165 2.98668 14.7461C3.08791 14.7757 3.19398 14.7851 3.29884 14.7738C3.4037 14.7624 3.50529 14.7305 3.59782 14.6799C3.69035 14.6293 3.772 14.5609 3.83812 14.4787C3.90423 14.3965 3.95351 14.3022 3.98314 14.2009C4.01277 14.0997 4.02218 13.9936 4.01081 13.8888C3.99945 13.7839 3.96755 13.6823 3.91693 13.5898L2.50772 14.3608ZM2.94462 9.78407C2.94462 7.4818 4.24567 5.55003 6.02217 4.73728C7.74834 3.94808 10.0677 4.15689 12.2715 6.44631L13.428 5.33372C10.8152 2.61704 7.77832 2.16837 5.35397 3.27667C2.98317 4.36142 1.33838 6.88 1.33838 9.78407H2.94462ZM9.09865 20.881C9.64798 21.3137 10.2369 21.7741 10.8334 22.1232C11.4298 22.4723 12.1109 22.755 12.8497 22.755V21.1487C12.5178 21.1487 12.128 21.0202 11.644 20.7365C11.1589 20.4538 10.6567 20.064 10.0934 19.6196L9.09865 20.881ZM16.6009 20.881C18.1278 19.6764 20.081 18.2971 21.6123 16.572C23.1725 14.8159 24.3611 12.6389 24.3611 9.78407H22.7549C22.7549 12.1377 21.7911 13.9507 20.4119 15.5055C19.0038 17.0903 17.2294 18.34 15.6061 19.6196L16.6009 20.881ZM24.3611 9.78407C24.3611 6.88 22.7174 4.36142 20.3455 3.27667C17.9212 2.16837 14.8865 2.61704 12.2715 5.33265L13.428 6.44631C15.6318 4.15796 17.9512 3.94808 19.6773 4.73728C21.4538 5.55003 22.7549 7.48073 22.7549 9.78407H24.3611ZM15.6061 19.6196C15.0428 20.064 14.5406 20.4538 14.0555 20.7365C13.5704 21.0192 13.1817 21.1487 12.8497 21.1487V22.755C13.5886 22.755 14.2697 22.4712 14.8661 22.1232C15.4636 21.7741 16.0515 21.3137 16.6009 20.881L15.6061 19.6196ZM10.0934 19.6196C9.24107 18.9482 8.37477 18.3057 7.49669 17.5829L6.47513 18.8251C7.36391 19.5564 8.3041 20.2546 9.09865 20.881L10.0934 19.6196ZM3.91693 13.5909C3.27178 12.4263 2.93695 11.1154 2.94462 9.78407H1.33838C1.33838 11.5381 1.78813 13.0447 2.50772 14.3608L3.91693 13.5909Z" fill="#800000"/>
</svg>
